<mxfile host="app.diagrams.net" modified="2021-03-15T18:30:50.369Z" agent="5.0 (X11)" etag="lFnI9-vSOP4-rcUKHVpD" version="14.4.8" type="github">
  <diagram id="yYash_9FX-N8x_OdWU7n" name="Page-1">
    <mxGraphModel dx="1422" dy="1942" grid="0" gridSize="10" guides="1" tooltips="1" connect="1" arrows="1" fold="1" page="1" pageScale="1" pageWidth="827" pageHeight="1169" math="0" shadow="0">
      <root>
        <mxCell id="0" />
        <mxCell id="1" parent="0" />
        <mxCell id="AYxX15isop8XZw2IDsf4-109" value="show_in_app" style="ellipse;whiteSpace=wrap;html=1;align=center;strokeColor=#6c8ebf;fillColor=#dae8fc;" parent="1" vertex="1">
          <mxGeometry x="223" y="192" width="100" height="40" as="geometry" />
        </mxCell>
        <mxCell id="AYxX15isop8XZw2IDsf4-127" style="edgeStyle=none;rounded=0;orthogonalLoop=1;jettySize=auto;html=1;startArrow=none;startFill=0;startSize=6;endArrow=none;endFill=0;strokeColor=#000000;strokeWidth=1;" parent="1" source="AYxX15isop8XZw2IDsf4-126" target="vbSCoahMgH9bi58tosfz-2" edge="1">
          <mxGeometry relative="1" as="geometry" />
        </mxCell>
        <mxCell id="AYxX15isop8XZw2IDsf4-126" value="reviewed" style="ellipse;whiteSpace=wrap;html=1;align=center;strokeColor=#6c8ebf;fillColor=#dae8fc;" parent="1" vertex="1">
          <mxGeometry x="1102" y="252" width="100" height="40" as="geometry" />
        </mxCell>
        <mxCell id="AYxX15isop8XZw2IDsf4-125" style="edgeStyle=none;rounded=0;orthogonalLoop=1;jettySize=auto;html=1;startArrow=none;startFill=0;startSize=6;endArrow=none;endFill=0;strokeColor=#000000;strokeWidth=1;" parent="1" source="AYxX15isop8XZw2IDsf4-124" target="vbSCoahMgH9bi58tosfz-2" edge="1">
          <mxGeometry relative="1" as="geometry" />
        </mxCell>
        <mxCell id="AYxX15isop8XZw2IDsf4-124" value="simple" style="ellipse;whiteSpace=wrap;html=1;align=center;strokeColor=#6c8ebf;fillColor=#dae8fc;" parent="1" vertex="1">
          <mxGeometry x="1251" y="217" width="100" height="40" as="geometry" />
        </mxCell>
        <mxCell id="AYxX15isop8XZw2IDsf4-122" value="url" style="ellipse;whiteSpace=wrap;html=1;align=center;strokeColor=#6c8ebf;fillColor=#dae8fc;" parent="1" vertex="1">
          <mxGeometry x="1248" y="250" width="100" height="40" as="geometry" />
        </mxCell>
        <mxCell id="AYxX15isop8XZw2IDsf4-24" value="" style="rounded=0;whiteSpace=wrap;html=1;" parent="1" vertex="1">
          <mxGeometry x="704" y="-188" width="246" height="270" as="geometry" />
        </mxCell>
        <mxCell id="vbSCoahMgH9bi58tosfz-1" value="user" style="whiteSpace=wrap;html=1;align=center;rounded=0;strokeColor=#b85450;fillColor=#f8cecc;" parent="1" vertex="1">
          <mxGeometry x="387" y="112" width="100" height="40" as="geometry" />
        </mxCell>
        <mxCell id="vbSCoahMgH9bi58tosfz-2" value="&lt;div&gt;item&lt;/div&gt;" style="whiteSpace=wrap;html=1;align=center;rounded=0;strokeColor=#b85450;fillColor=#f8cecc;" parent="1" vertex="1">
          <mxGeometry x="1117" y="112" width="100" height="40" as="geometry" />
        </mxCell>
        <mxCell id="AYxX15isop8XZw2IDsf4-2" style="rounded=0;orthogonalLoop=1;jettySize=auto;html=1;endArrow=none;endFill=0;" parent="1" source="AYxX15isop8XZw2IDsf4-1" target="vbSCoahMgH9bi58tosfz-1" edge="1">
          <mxGeometry relative="1" as="geometry" />
        </mxCell>
        <mxCell id="AYxX15isop8XZw2IDsf4-4" style="edgeStyle=none;rounded=0;orthogonalLoop=1;jettySize=auto;html=1;endArrow=none;endFill=0;" parent="1" source="AYxX15isop8XZw2IDsf4-3" target="vbSCoahMgH9bi58tosfz-2" edge="1">
          <mxGeometry relative="1" as="geometry" />
        </mxCell>
        <mxCell id="AYxX15isop8XZw2IDsf4-16" value="&amp;lt;1,1&amp;gt;" style="edgeStyle=none;rounded=0;orthogonalLoop=1;jettySize=auto;html=1;endArrow=none;endFill=0;" parent="1" source="AYxX15isop8XZw2IDsf4-12" target="vbSCoahMgH9bi58tosfz-2" edge="1">
          <mxGeometry x="0.102" y="-2" relative="1" as="geometry">
            <mxPoint as="offset" />
          </mxGeometry>
        </mxCell>
        <mxCell id="AYxX15isop8XZw2IDsf4-23" style="edgeStyle=none;rounded=0;orthogonalLoop=1;jettySize=auto;html=1;endArrow=none;endFill=0;" parent="1" source="AYxX15isop8XZw2IDsf4-12" target="vbSCoahMgH9bi58tosfz-1" edge="1">
          <mxGeometry relative="1" as="geometry" />
        </mxCell>
        <mxCell id="AYxX15isop8XZw2IDsf4-12" value="created_by" style="shape=rhombus;perimeter=rhombusPerimeter;whiteSpace=wrap;html=1;align=center;rounded=0;strokeColor=#82b366;fillColor=#d5e8d4;" parent="1" vertex="1">
          <mxGeometry x="767" y="162" width="120" height="60" as="geometry" />
        </mxCell>
        <mxCell id="AYxX15isop8XZw2IDsf4-17" style="edgeStyle=none;rounded=0;orthogonalLoop=1;jettySize=auto;html=1;endArrow=none;endFill=0;" parent="1" source="AYxX15isop8XZw2IDsf4-13" target="vbSCoahMgH9bi58tosfz-2" edge="1">
          <mxGeometry relative="1" as="geometry" />
        </mxCell>
        <mxCell id="AYxX15isop8XZw2IDsf4-22" style="edgeStyle=none;rounded=0;orthogonalLoop=1;jettySize=auto;html=1;endArrow=none;endFill=0;" parent="1" source="AYxX15isop8XZw2IDsf4-13" target="vbSCoahMgH9bi58tosfz-1" edge="1">
          <mxGeometry relative="1" as="geometry" />
        </mxCell>
        <mxCell id="AYxX15isop8XZw2IDsf4-13" value="liked_by" style="shape=rhombus;perimeter=rhombusPerimeter;whiteSpace=wrap;html=1;align=center;rounded=0;strokeColor=#82b366;fillColor=#d5e8d4;" parent="1" vertex="1">
          <mxGeometry x="767" y="-48" width="120" height="60" as="geometry" />
        </mxCell>
        <mxCell id="AYxX15isop8XZw2IDsf4-18" style="edgeStyle=none;rounded=0;orthogonalLoop=1;jettySize=auto;html=1;endArrow=none;endFill=0;" parent="1" source="AYxX15isop8XZw2IDsf4-14" target="vbSCoahMgH9bi58tosfz-2" edge="1">
          <mxGeometry relative="1" as="geometry" />
        </mxCell>
        <mxCell id="AYxX15isop8XZw2IDsf4-21" style="edgeStyle=none;rounded=0;orthogonalLoop=1;jettySize=auto;html=1;endArrow=none;endFill=0;" parent="1" source="AYxX15isop8XZw2IDsf4-14" target="vbSCoahMgH9bi58tosfz-1" edge="1">
          <mxGeometry relative="1" as="geometry" />
        </mxCell>
        <mxCell id="AYxX15isop8XZw2IDsf4-14" value="watched_by" style="shape=rhombus;perimeter=rhombusPerimeter;whiteSpace=wrap;html=1;align=center;rounded=0;strokeColor=#82b366;fillColor=#d5e8d4;" parent="1" vertex="1">
          <mxGeometry x="767" y="12" width="120" height="60" as="geometry" />
        </mxCell>
        <mxCell id="AYxX15isop8XZw2IDsf4-19" value="&amp;lt;1,1&amp;gt;" style="edgeStyle=none;rounded=0;orthogonalLoop=1;jettySize=auto;html=1;endArrow=none;endFill=0;" parent="1" source="AYxX15isop8XZw2IDsf4-15" target="vbSCoahMgH9bi58tosfz-2" edge="1">
          <mxGeometry x="0.0497" relative="1" as="geometry">
            <mxPoint as="offset" />
          </mxGeometry>
        </mxCell>
        <mxCell id="AYxX15isop8XZw2IDsf4-20" style="edgeStyle=none;rounded=0;orthogonalLoop=1;jettySize=auto;html=1;endArrow=none;endFill=0;" parent="1" source="AYxX15isop8XZw2IDsf4-15" target="vbSCoahMgH9bi58tosfz-1" edge="1">
          <mxGeometry relative="1" as="geometry" />
        </mxCell>
        <mxCell id="AYxX15isop8XZw2IDsf4-15" value="reviewed_by" style="shape=rhombus;perimeter=rhombusPerimeter;whiteSpace=wrap;html=1;align=center;rounded=0;strokeColor=#82b366;fillColor=#d5e8d4;" parent="1" vertex="1">
          <mxGeometry x="767.5" y="102" width="120" height="60" as="geometry" />
        </mxCell>
        <mxCell id="AYxX15isop8XZw2IDsf4-25" value="&lt;font style=&quot;font-size: 14px&quot;&gt;user_data&lt;/font&gt;" style="text;html=1;align=center;verticalAlign=middle;resizable=0;points=[];autosize=1;" parent="1" vertex="1">
          <mxGeometry x="700.5" y="-188" width="80" height="20" as="geometry" />
        </mxCell>
        <mxCell id="AYxX15isop8XZw2IDsf4-31" style="edgeStyle=none;rounded=0;orthogonalLoop=1;jettySize=auto;html=1;endArrow=none;endFill=0;" parent="1" source="AYxX15isop8XZw2IDsf4-30" target="vbSCoahMgH9bi58tosfz-2" edge="1">
          <mxGeometry relative="1" as="geometry" />
        </mxCell>
        <mxCell id="AYxX15isop8XZw2IDsf4-32" style="edgeStyle=none;rounded=0;orthogonalLoop=1;jettySize=auto;html=1;endArrow=none;endFill=0;" parent="1" source="AYxX15isop8XZw2IDsf4-30" target="vbSCoahMgH9bi58tosfz-1" edge="1">
          <mxGeometry relative="1" as="geometry" />
        </mxCell>
        <mxCell id="AYxX15isop8XZw2IDsf4-30" value="last_recommended" style="shape=rhombus;perimeter=rhombusPerimeter;whiteSpace=wrap;html=1;align=center;rounded=0;strokeColor=#82b366;fillColor=#d5e8d4;" parent="1" vertex="1">
          <mxGeometry x="767" y="-108" width="120" height="60" as="geometry" />
        </mxCell>
        <mxCell id="AYxX15isop8XZw2IDsf4-35" style="edgeStyle=none;rounded=0;orthogonalLoop=1;jettySize=auto;html=1;endArrow=none;endFill=0;" parent="1" source="AYxX15isop8XZw2IDsf4-34" target="vbSCoahMgH9bi58tosfz-1" edge="1">
          <mxGeometry relative="1" as="geometry" />
        </mxCell>
        <mxCell id="AYxX15isop8XZw2IDsf4-36" style="edgeStyle=none;rounded=0;orthogonalLoop=1;jettySize=auto;html=1;endArrow=none;endFill=0;" parent="1" source="AYxX15isop8XZw2IDsf4-34" target="AYxX15isop8XZw2IDsf4-33" edge="1">
          <mxGeometry relative="1" as="geometry" />
        </mxCell>
        <mxCell id="AYxX15isop8XZw2IDsf4-34" value="interested_in" style="shape=rhombus;perimeter=rhombusPerimeter;whiteSpace=wrap;html=1;align=center;rounded=0;strokeColor=#82b366;fillColor=#d5e8d4;" parent="1" vertex="1">
          <mxGeometry x="584" y="182" width="120" height="60" as="geometry" />
        </mxCell>
        <mxCell id="AYxX15isop8XZw2IDsf4-42" style="edgeStyle=none;rounded=0;orthogonalLoop=1;jettySize=auto;html=1;endArrow=none;endFill=0;" parent="1" source="AYxX15isop8XZw2IDsf4-41" target="AYxX15isop8XZw2IDsf4-33" edge="1">
          <mxGeometry relative="1" as="geometry" />
        </mxCell>
        <mxCell id="AYxX15isop8XZw2IDsf4-41" value="has" style="shape=rhombus;perimeter=rhombusPerimeter;whiteSpace=wrap;html=1;align=center;rounded=0;strokeColor=#82b366;fillColor=#d5e8d4;" parent="1" vertex="1">
          <mxGeometry x="766.5" y="412" width="120" height="60" as="geometry" />
        </mxCell>
        <mxCell id="AYxX15isop8XZw2IDsf4-44" style="edgeStyle=none;rounded=0;orthogonalLoop=1;jettySize=auto;html=1;endArrow=none;endFill=0;" parent="1" source="AYxX15isop8XZw2IDsf4-43" target="AYxX15isop8XZw2IDsf4-41" edge="1">
          <mxGeometry relative="1" as="geometry" />
        </mxCell>
        <mxCell id="AYxX15isop8XZw2IDsf4-54" style="edgeStyle=none;rounded=0;orthogonalLoop=1;jettySize=auto;html=1;endArrow=none;endFill=0;" parent="1" source="AYxX15isop8XZw2IDsf4-43" target="AYxX15isop8XZw2IDsf4-52" edge="1">
          <mxGeometry relative="1" as="geometry" />
        </mxCell>
        <mxCell id="AYxX15isop8XZw2IDsf4-53" value="&amp;lt;1,1&amp;gt;" style="edgeStyle=none;rounded=0;orthogonalLoop=1;jettySize=auto;html=1;endArrow=none;endFill=0;" parent="1" source="AYxX15isop8XZw2IDsf4-52" target="vbSCoahMgH9bi58tosfz-2" edge="1">
          <mxGeometry relative="1" as="geometry" />
        </mxCell>
        <mxCell id="AYxX15isop8XZw2IDsf4-52" value="has" style="shape=rhombus;perimeter=rhombusPerimeter;whiteSpace=wrap;html=1;align=center;rounded=0;strokeColor=#82b366;fillColor=#d5e8d4;" parent="1" vertex="1">
          <mxGeometry x="957" y="292" width="120" height="60" as="geometry" />
        </mxCell>
        <mxCell id="AYxX15isop8XZw2IDsf4-58" style="edgeStyle=none;rounded=0;orthogonalLoop=1;jettySize=auto;html=1;endArrow=none;endFill=0;" parent="1" source="AYxX15isop8XZw2IDsf4-57" target="AYxX15isop8XZw2IDsf4-43" edge="1">
          <mxGeometry relative="1" as="geometry" />
        </mxCell>
        <mxCell id="AYxX15isop8XZw2IDsf4-59" style="edgeStyle=none;rounded=0;orthogonalLoop=1;jettySize=auto;html=1;endArrow=none;endFill=0;" parent="1" source="AYxX15isop8XZw2IDsf4-57" target="vbSCoahMgH9bi58tosfz-1" edge="1">
          <mxGeometry relative="1" as="geometry" />
        </mxCell>
        <mxCell id="AYxX15isop8XZw2IDsf4-57" value="prefers" style="shape=rhombus;perimeter=rhombusPerimeter;whiteSpace=wrap;html=1;align=center;rounded=0;strokeColor=#82b366;fillColor=#d5e8d4;" parent="1" vertex="1">
          <mxGeometry x="557" y="302" width="120" height="60" as="geometry" />
        </mxCell>
        <mxCell id="AYxX15isop8XZw2IDsf4-33" value="&lt;div&gt;topic&lt;/div&gt;" style="whiteSpace=wrap;html=1;align=center;rounded=0;strokeColor=#b85450;fillColor=#f8cecc;" parent="1" vertex="1">
          <mxGeometry x="777.5" y="262" width="100" height="40" as="geometry" />
        </mxCell>
        <mxCell id="AYxX15isop8XZw2IDsf4-38" style="edgeStyle=none;rounded=0;orthogonalLoop=1;jettySize=auto;html=1;endArrow=none;endFill=0;" parent="1" source="AYxX15isop8XZw2IDsf4-37" target="AYxX15isop8XZw2IDsf4-33" edge="1">
          <mxGeometry relative="1" as="geometry" />
        </mxCell>
        <mxCell id="AYxX15isop8XZw2IDsf4-37" value="name" style="ellipse;whiteSpace=wrap;html=1;align=center;strokeColor=#6c8ebf;fillColor=#dae8fc;" parent="1" vertex="1">
          <mxGeometry x="713.5" y="322" width="100" height="40" as="geometry" />
        </mxCell>
        <mxCell id="AYxX15isop8XZw2IDsf4-40" style="edgeStyle=none;rounded=0;orthogonalLoop=1;jettySize=auto;html=1;endArrow=none;endFill=0;" parent="1" source="AYxX15isop8XZw2IDsf4-39" target="AYxX15isop8XZw2IDsf4-33" edge="1">
          <mxGeometry relative="1" as="geometry" />
        </mxCell>
        <mxCell id="AYxX15isop8XZw2IDsf4-39" value="id" style="ellipse;whiteSpace=wrap;html=1;align=center;fontStyle=4;fillColor=#dae8fc;strokeColor=#6c8ebf;" parent="1" vertex="1">
          <mxGeometry x="834.5" y="322" width="100" height="40" as="geometry" />
        </mxCell>
        <mxCell id="AYxX15isop8XZw2IDsf4-63" value="type" style="whiteSpace=wrap;html=1;align=center;rounded=0;strokeColor=#b85450;fillColor=#f8cecc;" parent="1" vertex="1">
          <mxGeometry x="1457" y="112" width="100" height="40" as="geometry" />
        </mxCell>
        <mxCell id="AYxX15isop8XZw2IDsf4-65" style="edgeStyle=none;rounded=0;orthogonalLoop=1;jettySize=auto;html=1;endArrow=none;endFill=0;" parent="1" source="AYxX15isop8XZw2IDsf4-64" target="AYxX15isop8XZw2IDsf4-63" edge="1">
          <mxGeometry relative="1" as="geometry" />
        </mxCell>
        <mxCell id="AYxX15isop8XZw2IDsf4-64" value="id" style="ellipse;whiteSpace=wrap;html=1;align=center;fontStyle=4;fillColor=#dae8fc;strokeColor=#6c8ebf;" parent="1" vertex="1">
          <mxGeometry x="1547" y="72" width="100" height="40" as="geometry" />
        </mxCell>
        <mxCell id="AYxX15isop8XZw2IDsf4-68" style="edgeStyle=none;rounded=0;orthogonalLoop=1;jettySize=auto;html=1;endArrow=none;endFill=0;" parent="1" source="AYxX15isop8XZw2IDsf4-66" target="AYxX15isop8XZw2IDsf4-63" edge="1">
          <mxGeometry relative="1" as="geometry" />
        </mxCell>
        <mxCell id="AYxX15isop8XZw2IDsf4-70" style="edgeStyle=none;rounded=0;orthogonalLoop=1;jettySize=auto;html=1;endArrow=none;endFill=0;" parent="1" source="AYxX15isop8XZw2IDsf4-69" target="AYxX15isop8XZw2IDsf4-63" edge="1">
          <mxGeometry relative="1" as="geometry" />
        </mxCell>
        <mxCell id="AYxX15isop8XZw2IDsf4-69" value="icon" style="ellipse;whiteSpace=wrap;html=1;align=center;strokeColor=#6c8ebf;fillColor=#dae8fc;" parent="1" vertex="1">
          <mxGeometry x="1567" y="152" width="100" height="40" as="geometry" />
        </mxCell>
        <mxCell id="AYxX15isop8XZw2IDsf4-73" style="edgeStyle=none;rounded=0;orthogonalLoop=1;jettySize=auto;html=1;endArrow=none;endFill=0;" parent="1" source="AYxX15isop8XZw2IDsf4-71" target="AYxX15isop8XZw2IDsf4-63" edge="1">
          <mxGeometry relative="1" as="geometry" />
        </mxCell>
        <mxCell id="AYxX15isop8XZw2IDsf4-71" value="language" style="ellipse;whiteSpace=wrap;html=1;align=center;strokeColor=#6c8ebf;fillColor=#dae8fc;" parent="1" vertex="1">
          <mxGeometry x="1547" y="192" width="100" height="40" as="geometry" />
        </mxCell>
        <mxCell id="AYxX15isop8XZw2IDsf4-76" style="edgeStyle=none;rounded=0;orthogonalLoop=1;jettySize=auto;html=1;endArrow=none;endFill=0;" parent="1" source="AYxX15isop8XZw2IDsf4-74" target="AYxX15isop8XZw2IDsf4-63" edge="1">
          <mxGeometry relative="1" as="geometry" />
        </mxCell>
        <mxCell id="AYxX15isop8XZw2IDsf4-74" value="view_external" style="ellipse;whiteSpace=wrap;html=1;align=center;strokeColor=#6c8ebf;fillColor=#dae8fc;" parent="1" vertex="1">
          <mxGeometry x="1667" y="142" width="100" height="40" as="geometry" />
        </mxCell>
        <mxCell id="AYxX15isop8XZw2IDsf4-78" value="" style="edgeStyle=none;rounded=0;orthogonalLoop=1;jettySize=auto;html=1;endArrow=none;endFill=0;" parent="1" source="AYxX15isop8XZw2IDsf4-77" target="AYxX15isop8XZw2IDsf4-63" edge="1">
          <mxGeometry relative="1" as="geometry" />
        </mxCell>
        <mxCell id="AYxX15isop8XZw2IDsf4-79" value="&amp;lt;1,1&amp;gt;" style="edgeStyle=none;rounded=0;orthogonalLoop=1;jettySize=auto;html=1;endArrow=none;endFill=0;" parent="1" source="AYxX15isop8XZw2IDsf4-77" target="vbSCoahMgH9bi58tosfz-2" edge="1">
          <mxGeometry relative="1" as="geometry" />
        </mxCell>
        <mxCell id="AYxX15isop8XZw2IDsf4-77" value="has" style="shape=rhombus;perimeter=rhombusPerimeter;whiteSpace=wrap;html=1;align=center;rounded=0;strokeColor=#82b366;fillColor=#d5e8d4;" parent="1" vertex="1">
          <mxGeometry x="1277" y="102" width="120" height="60" as="geometry" />
        </mxCell>
        <mxCell id="AYxX15isop8XZw2IDsf4-89" value="&amp;lt;1,1&amp;gt;" style="edgeStyle=none;rounded=0;orthogonalLoop=1;jettySize=auto;html=1;endArrow=none;endFill=0;" parent="1" source="AYxX15isop8XZw2IDsf4-88" target="AYxX15isop8XZw2IDsf4-80" edge="1">
          <mxGeometry relative="1" as="geometry" />
        </mxCell>
        <mxCell id="AYxX15isop8XZw2IDsf4-90" style="edgeStyle=none;rounded=0;orthogonalLoop=1;jettySize=auto;html=1;endArrow=none;endFill=0;" parent="1" source="AYxX15isop8XZw2IDsf4-88" target="vbSCoahMgH9bi58tosfz-2" edge="1">
          <mxGeometry relative="1" as="geometry" />
        </mxCell>
        <mxCell id="AYxX15isop8XZw2IDsf4-88" value="has" style="shape=rhombus;perimeter=rhombusPerimeter;whiteSpace=wrap;html=1;align=center;rounded=0;strokeColor=#82b366;fillColor=#d5e8d4;" parent="1" vertex="1">
          <mxGeometry x="877" y="-298" width="120" height="60" as="geometry" />
        </mxCell>
        <mxCell id="AYxX15isop8XZw2IDsf4-92" value="&amp;lt;1,1&amp;gt;" style="edgeStyle=none;rounded=0;orthogonalLoop=1;jettySize=auto;html=1;endArrow=none;endFill=0;" parent="1" source="AYxX15isop8XZw2IDsf4-91" target="AYxX15isop8XZw2IDsf4-80" edge="1">
          <mxGeometry relative="1" as="geometry" />
        </mxCell>
        <mxCell id="AYxX15isop8XZw2IDsf4-93" style="edgeStyle=none;rounded=0;orthogonalLoop=1;jettySize=auto;html=1;endArrow=none;endFill=0;" parent="1" source="AYxX15isop8XZw2IDsf4-91" target="vbSCoahMgH9bi58tosfz-1" edge="1">
          <mxGeometry relative="1" as="geometry" />
        </mxCell>
        <mxCell id="AYxX15isop8XZw2IDsf4-91" value="has" style="shape=rhombus;perimeter=rhombusPerimeter;whiteSpace=wrap;html=1;align=center;rounded=0;strokeColor=#82b366;fillColor=#d5e8d4;" parent="1" vertex="1">
          <mxGeometry x="647" y="-288" width="120" height="60" as="geometry" />
        </mxCell>
        <mxCell id="AYxX15isop8XZw2IDsf4-94" value="" style="group" parent="1" vertex="1" connectable="0">
          <mxGeometry x="660" y="-513" width="217" height="100" as="geometry" />
        </mxCell>
        <mxCell id="AYxX15isop8XZw2IDsf4-80" value="feedback" style="whiteSpace=wrap;html=1;align=center;rounded=0;strokeColor=#b85450;fillColor=#f8cecc;" parent="AYxX15isop8XZw2IDsf4-94" vertex="1">
          <mxGeometry x="117" y="60" width="100" height="40" as="geometry" />
        </mxCell>
        <mxCell id="AYxX15isop8XZw2IDsf4-87" style="edgeStyle=none;rounded=0;orthogonalLoop=1;jettySize=auto;html=1;endArrow=none;endFill=0;" parent="AYxX15isop8XZw2IDsf4-94" source="AYxX15isop8XZw2IDsf4-83" target="AYxX15isop8XZw2IDsf4-80" edge="1">
          <mxGeometry relative="1" as="geometry" />
        </mxCell>
        <mxCell id="AYxX15isop8XZw2IDsf4-83" value="description" style="ellipse;whiteSpace=wrap;html=1;align=center;strokeColor=#6c8ebf;fillColor=#dae8fc;" parent="AYxX15isop8XZw2IDsf4-94" vertex="1">
          <mxGeometry x="117" width="100" height="40" as="geometry" />
        </mxCell>
        <mxCell id="AYxX15isop8XZw2IDsf4-86" style="edgeStyle=none;rounded=0;orthogonalLoop=1;jettySize=auto;html=1;endArrow=none;endFill=0;" parent="AYxX15isop8XZw2IDsf4-94" source="AYxX15isop8XZw2IDsf4-85" target="AYxX15isop8XZw2IDsf4-80" edge="1">
          <mxGeometry relative="1" as="geometry" />
        </mxCell>
        <mxCell id="AYxX15isop8XZw2IDsf4-85" value="id" style="ellipse;whiteSpace=wrap;html=1;align=center;fontStyle=4;fillColor=#dae8fc;strokeColor=#6c8ebf;" parent="AYxX15isop8XZw2IDsf4-94" vertex="1">
          <mxGeometry y="20" width="100" height="40" as="geometry" />
        </mxCell>
        <mxCell id="AYxX15isop8XZw2IDsf4-96" style="edgeStyle=none;rounded=0;orthogonalLoop=1;jettySize=auto;html=1;endArrow=none;endFill=0;" parent="1" source="AYxX15isop8XZw2IDsf4-95" target="vbSCoahMgH9bi58tosfz-2" edge="1">
          <mxGeometry relative="1" as="geometry" />
        </mxCell>
        <mxCell id="AYxX15isop8XZw2IDsf4-97" style="edgeStyle=none;rounded=0;orthogonalLoop=1;jettySize=auto;html=1;endArrow=none;endFill=0;" parent="1" source="AYxX15isop8XZw2IDsf4-95" target="vbSCoahMgH9bi58tosfz-1" edge="1">
          <mxGeometry relative="1" as="geometry" />
        </mxCell>
        <mxCell id="AYxX15isop8XZw2IDsf4-95" value="watchlist" style="shape=rhombus;perimeter=rhombusPerimeter;whiteSpace=wrap;html=1;align=center;rounded=0;strokeColor=#82b366;fillColor=#d5e8d4;" parent="1" vertex="1">
          <mxGeometry x="767" y="-168" width="120" height="60" as="geometry" />
        </mxCell>
        <mxCell id="AYxX15isop8XZw2IDsf4-98" value="&lt;font style=&quot;font-size: 16px&quot;&gt;Der Übersicht halber sind nur 1:1 Kardinalitäten enthalten.&lt;/font&gt;" style="text;html=1;align=center;verticalAlign=middle;resizable=0;points=[];autosize=1;" parent="1" vertex="1">
          <mxGeometry x="187" y="-508" width="430" height="20" as="geometry" />
        </mxCell>
        <mxCell id="AYxX15isop8XZw2IDsf4-100" style="edgeStyle=none;rounded=0;orthogonalLoop=1;jettySize=auto;html=1;endArrow=none;endFill=0;" parent="1" source="AYxX15isop8XZw2IDsf4-99" target="vbSCoahMgH9bi58tosfz-1" edge="1">
          <mxGeometry relative="1" as="geometry" />
        </mxCell>
        <mxCell id="AYxX15isop8XZw2IDsf4-102" style="edgeStyle=none;rounded=0;orthogonalLoop=1;jettySize=auto;html=1;endArrow=none;endFill=0;" parent="1" source="AYxX15isop8XZw2IDsf4-101" target="vbSCoahMgH9bi58tosfz-1" edge="1">
          <mxGeometry relative="1" as="geometry" />
        </mxCell>
        <mxCell id="AYxX15isop8XZw2IDsf4-104" style="edgeStyle=none;rounded=0;orthogonalLoop=1;jettySize=auto;html=1;endArrow=none;endFill=0;" parent="1" source="AYxX15isop8XZw2IDsf4-1" target="vbSCoahMgH9bi58tosfz-1" edge="1">
          <mxGeometry relative="1" as="geometry" />
        </mxCell>
        <mxCell id="AYxX15isop8XZw2IDsf4-141" style="edgeStyle=none;rounded=0;orthogonalLoop=1;jettySize=auto;html=1;startArrow=none;startFill=0;startSize=6;endArrow=none;endFill=0;strokeColor=#000000;strokeWidth=1;" parent="1" source="AYxX15isop8XZw2IDsf4-103" target="vbSCoahMgH9bi58tosfz-1" edge="1">
          <mxGeometry relative="1" as="geometry" />
        </mxCell>
        <mxCell id="AYxX15isop8XZw2IDsf4-103" value="role" style="ellipse;whiteSpace=wrap;html=1;align=center;strokeColor=#6c8ebf;fillColor=#dae8fc;" parent="1" vertex="1">
          <mxGeometry x="175" y="112" width="100" height="40" as="geometry" />
        </mxCell>
        <mxCell id="AYxX15isop8XZw2IDsf4-106" style="edgeStyle=none;rounded=0;orthogonalLoop=1;jettySize=auto;html=1;endArrow=none;endFill=0;" parent="1" source="AYxX15isop8XZw2IDsf4-105" target="vbSCoahMgH9bi58tosfz-1" edge="1">
          <mxGeometry relative="1" as="geometry" />
        </mxCell>
        <mxCell id="AYxX15isop8XZw2IDsf4-105" value="last_change" style="ellipse;whiteSpace=wrap;html=1;align=center;strokeColor=#6c8ebf;fillColor=#dae8fc;" parent="1" vertex="1">
          <mxGeometry x="177" y="154" width="100" height="40" as="geometry" />
        </mxCell>
        <mxCell id="AYxX15isop8XZw2IDsf4-108" style="edgeStyle=none;rounded=0;orthogonalLoop=1;jettySize=auto;html=1;endArrow=none;endFill=0;" parent="1" source="AYxX15isop8XZw2IDsf4-107" target="vbSCoahMgH9bi58tosfz-1" edge="1">
          <mxGeometry relative="1" as="geometry" />
        </mxCell>
        <mxCell id="AYxX15isop8XZw2IDsf4-110" style="edgeStyle=none;rounded=0;orthogonalLoop=1;jettySize=auto;html=1;endArrow=none;endFill=0;" parent="1" source="AYxX15isop8XZw2IDsf4-109" target="vbSCoahMgH9bi58tosfz-1" edge="1">
          <mxGeometry relative="1" as="geometry" />
        </mxCell>
        <mxCell id="AYxX15isop8XZw2IDsf4-115" style="edgeStyle=none;rounded=0;orthogonalLoop=1;jettySize=auto;html=1;startArrow=none;startFill=0;startSize=6;endArrow=none;endFill=0;strokeWidth=1;" parent="1" source="AYxX15isop8XZw2IDsf4-113" target="vbSCoahMgH9bi58tosfz-2" edge="1">
          <mxGeometry relative="1" as="geometry" />
        </mxCell>
        <mxCell id="AYxX15isop8XZw2IDsf4-113" value="title" style="ellipse;whiteSpace=wrap;html=1;align=center;strokeColor=#6c8ebf;fillColor=#dae8fc;" parent="1" vertex="1">
          <mxGeometry x="1117" y="214" width="100" height="40" as="geometry" />
        </mxCell>
        <mxCell id="AYxX15isop8XZw2IDsf4-118" style="edgeStyle=none;rounded=0;orthogonalLoop=1;jettySize=auto;html=1;startArrow=none;startFill=0;startSize=6;endArrow=none;endFill=0;strokeColor=#000000;strokeWidth=1;" parent="1" source="AYxX15isop8XZw2IDsf4-117" target="vbSCoahMgH9bi58tosfz-2" edge="1">
          <mxGeometry relative="1" as="geometry" />
        </mxCell>
        <mxCell id="AYxX15isop8XZw2IDsf4-117" value="description" style="ellipse;whiteSpace=wrap;html=1;align=center;strokeColor=#6c8ebf;fillColor=#dae8fc;" parent="1" vertex="1">
          <mxGeometry x="1174" y="262" width="100" height="40" as="geometry" />
        </mxCell>
        <mxCell id="AYxX15isop8XZw2IDsf4-120" style="edgeStyle=none;rounded=0;orthogonalLoop=1;jettySize=auto;html=1;startArrow=none;startFill=0;startSize=6;endArrow=none;endFill=0;strokeColor=#000000;strokeWidth=1;" parent="1" source="AYxX15isop8XZw2IDsf4-119" target="vbSCoahMgH9bi58tosfz-2" edge="1">
          <mxGeometry relative="1" as="geometry" />
        </mxCell>
        <mxCell id="AYxX15isop8XZw2IDsf4-123" style="edgeStyle=none;rounded=0;orthogonalLoop=1;jettySize=auto;html=1;startArrow=none;startFill=0;startSize=6;endArrow=none;endFill=0;strokeColor=#000000;strokeWidth=1;" parent="1" source="AYxX15isop8XZw2IDsf4-3" target="vbSCoahMgH9bi58tosfz-2" edge="1">
          <mxGeometry relative="1" as="geometry" />
        </mxCell>
        <mxCell id="AYxX15isop8XZw2IDsf4-128" style="edgeStyle=none;rounded=0;orthogonalLoop=1;jettySize=auto;html=1;exitX=0.5;exitY=1;exitDx=0;exitDy=0;startArrow=none;startFill=0;startSize=6;endArrow=none;endFill=0;strokeColor=#000000;strokeWidth=1;" parent="1" source="AYxX15isop8XZw2IDsf4-126" target="AYxX15isop8XZw2IDsf4-126" edge="1">
          <mxGeometry relative="1" as="geometry" />
        </mxCell>
        <mxCell id="AYxX15isop8XZw2IDsf4-131" value="&lt;font style=&quot;font-size: 30px&quot;&gt;Greenstream&lt;/font&gt;" style="text;html=1;align=center;verticalAlign=middle;resizable=0;points=[];autosize=1;" parent="1" vertex="1">
          <mxGeometry x="187" y="-584" width="184" height="22" as="geometry" />
        </mxCell>
        <mxCell id="AYxX15isop8XZw2IDsf4-133" style="edgeStyle=none;rounded=0;orthogonalLoop=1;jettySize=auto;html=1;startArrow=none;startFill=0;startSize=6;endArrow=none;endFill=0;strokeColor=#000000;strokeWidth=1;" parent="1" source="AYxX15isop8XZw2IDsf4-132" target="AYxX15isop8XZw2IDsf4-33" edge="1">
          <mxGeometry relative="1" as="geometry" />
        </mxCell>
        <mxCell id="AYxX15isop8XZw2IDsf4-134" value="&amp;lt;1,1&amp;gt;" style="edgeStyle=none;rounded=0;orthogonalLoop=1;jettySize=auto;html=1;startArrow=none;startFill=0;startSize=6;endArrow=none;endFill=0;strokeColor=#000000;strokeWidth=1;" parent="1" source="AYxX15isop8XZw2IDsf4-132" target="vbSCoahMgH9bi58tosfz-2" edge="1">
          <mxGeometry relative="1" as="geometry" />
        </mxCell>
        <mxCell id="AYxX15isop8XZw2IDsf4-132" value="has" style="shape=rhombus;perimeter=rhombusPerimeter;whiteSpace=wrap;html=1;align=center;rounded=0;strokeColor=#82b366;fillColor=#d5e8d4;" parent="1" vertex="1">
          <mxGeometry x="929" y="179" width="120" height="60" as="geometry" />
        </mxCell>
        <mxCell id="AYxX15isop8XZw2IDsf4-43" value="language" style="whiteSpace=wrap;html=1;align=center;rounded=0;strokeColor=#b85450;fillColor=#f8cecc;" parent="1" vertex="1">
          <mxGeometry x="777" y="532" width="100" height="40" as="geometry" />
        </mxCell>
        <mxCell id="AYxX15isop8XZw2IDsf4-139" style="edgeStyle=none;rounded=0;orthogonalLoop=1;jettySize=auto;html=1;startArrow=none;startFill=0;startSize=6;endArrow=none;endFill=0;strokeColor=#000000;strokeWidth=1;" parent="1" source="AYxX15isop8XZw2IDsf4-47" target="AYxX15isop8XZw2IDsf4-43" edge="1">
          <mxGeometry relative="1" as="geometry" />
        </mxCell>
        <mxCell id="AYxX15isop8XZw2IDsf4-47" value="name" style="ellipse;whiteSpace=wrap;html=1;align=center;strokeColor=#6c8ebf;fillColor=#dae8fc;" parent="1" vertex="1">
          <mxGeometry x="727" y="579" width="100" height="40" as="geometry" />
        </mxCell>
        <mxCell id="AYxX15isop8XZw2IDsf4-138" style="edgeStyle=none;rounded=0;orthogonalLoop=1;jettySize=auto;html=1;startArrow=none;startFill=0;startSize=6;endArrow=none;endFill=0;strokeColor=#000000;strokeWidth=1;" parent="1" source="AYxX15isop8XZw2IDsf4-51" target="AYxX15isop8XZw2IDsf4-43" edge="1">
          <mxGeometry relative="1" as="geometry" />
        </mxCell>
        <mxCell id="AYxX15isop8XZw2IDsf4-51" value="&lt;u&gt;code&lt;/u&gt;" style="ellipse;whiteSpace=wrap;html=1;align=center;strokeColor=#6c8ebf;fillColor=#dae8fc;" parent="1" vertex="1">
          <mxGeometry x="827" y="579" width="100" height="40" as="geometry" />
        </mxCell>
        <mxCell id="AYxX15isop8XZw2IDsf4-101" value="username" style="ellipse;whiteSpace=wrap;html=1;align=center;strokeColor=#6c8ebf;fillColor=#dae8fc;" parent="1" vertex="1">
          <mxGeometry x="179" y="72" width="100" height="40" as="geometry" />
        </mxCell>
        <mxCell id="AYxX15isop8XZw2IDsf4-99" value="passwd_hash" style="ellipse;whiteSpace=wrap;html=1;align=center;strokeColor=#6c8ebf;fillColor=#dae8fc;" parent="1" vertex="1">
          <mxGeometry x="281" y="74" width="100" height="40" as="geometry" />
        </mxCell>
        <mxCell id="AYxX15isop8XZw2IDsf4-66" value="name" style="ellipse;whiteSpace=wrap;html=1;align=center;strokeColor=#6c8ebf;fillColor=#dae8fc;" parent="1" vertex="1">
          <mxGeometry x="1577" y="112" width="100" height="40" as="geometry" />
        </mxCell>
        <mxCell id="AYxX15isop8XZw2IDsf4-135" style="edgeStyle=none;rounded=0;orthogonalLoop=1;jettySize=auto;html=1;startArrow=none;startFill=0;startSize=6;endArrow=none;endFill=0;strokeColor=#000000;strokeWidth=1;" parent="1" source="AYxX15isop8XZw2IDsf4-122" target="AYxX15isop8XZw2IDsf4-3" edge="1">
          <mxGeometry relative="1" as="geometry">
            <mxPoint x="1280.2391119688396" y="251.30432838825254" as="sourcePoint" />
            <mxPoint x="1185.985507246377" y="152" as="targetPoint" />
          </mxGeometry>
        </mxCell>
        <mxCell id="AYxX15isop8XZw2IDsf4-119" value="explanation_id" style="ellipse;whiteSpace=wrap;html=1;align=center;strokeColor=#6c8ebf;fillColor=#dae8fc;" parent="1" vertex="1">
          <mxGeometry x="1180" y="226" width="100" height="40" as="geometry" />
        </mxCell>
        <mxCell id="AYxX15isop8XZw2IDsf4-3" value="id" style="ellipse;whiteSpace=wrap;html=1;align=center;fontStyle=4;fillColor=#dae8fc;strokeColor=#6c8ebf;" parent="1" vertex="1">
          <mxGeometry x="1180" y="189" width="100" height="40" as="geometry" />
        </mxCell>
        <mxCell id="AYxX15isop8XZw2IDsf4-1" value="email" style="ellipse;whiteSpace=wrap;html=1;align=center;fontStyle=4;fillColor=#dae8fc;strokeColor=#6c8ebf;" parent="1" vertex="1">
          <mxGeometry x="277" y="114" width="100" height="40" as="geometry" />
        </mxCell>
        <mxCell id="AYxX15isop8XZw2IDsf4-107" value="notification_time" style="ellipse;whiteSpace=wrap;html=1;align=center;strokeColor=#6c8ebf;fillColor=#dae8fc;" parent="1" vertex="1">
          <mxGeometry x="281" y="156" width="100" height="40" as="geometry" />
        </mxCell>
      </root>
    </mxGraphModel>
  </diagram>
</mxfile>
